<svg width="70" height="70" viewBox="0 0 70 70" fill="none" xmlns="http://www.w3.org/2000/svg">
<path d="M34.9998 3.05978e-06C15.7008 1.37261e-06 4.74704e-06 15.7014 3.05984e-06 35.0008C1.37266e-06 54.2999 15.7008 70.0013 34.9998 70.0013C54.2989 70.0013 70 54.2999 70 35.0008C70 15.7014 54.2989 4.74696e-06 34.9998 3.05978e-06ZM34.9998 65.21C18.3427 65.21 4.79131 51.6582 4.79099 35.0008C4.79099 18.3433 18.3424 4.79163 34.9998 4.79131C51.657 4.79163 65.2084 18.3434 65.2084 35.0011C65.2084 51.6579 51.657 65.21 34.9998 65.21Z" fill="white"/>
<path d="M39.7001 20.0095C38.7646 19.0742 37.2476 19.0745 36.3124 20.0095C35.3765 20.9454 35.3765 22.462 36.3127 23.3979L45.5184 32.6033L18.8605 32.6058C17.5375 32.6061 16.4652 33.6784 16.4652 35.0021C16.4655 36.3251 17.5378 37.3971 18.8608 37.3971L45.5197 37.3946L36.3117 46.6019C35.3761 47.5374 35.3761 49.0547 36.3117 49.9899C36.7797 50.4576 37.3926 50.6917 38.0059 50.6917C38.6189 50.6917 39.2319 50.4576 39.6998 49.9903L52.997 36.6934C53.4464 36.2443 53.6987 35.6352 53.6987 34.9995C53.6984 34.3639 53.4461 33.7551 52.9966 33.305L39.7001 20.0095Z" fill="white"/>
</svg>
