<svg width="70" height="70" viewBox="0 0 70 70" fill="none" xmlns="http://www.w3.org/2000/svg">
<path d="M35.0002 70.0013C54.2992 70.0013 70 54.2999 70 35.0005C70 15.7014 54.2992 0 35.0002 0C15.7011 0 0 15.7014 0 35.0005C0 54.2999 15.7011 70.0013 35.0002 70.0013ZM35.0002 4.7913C51.6573 4.7913 65.2087 18.343 65.209 35.0005C65.209 51.6579 51.6576 65.2096 35.0002 65.21C18.343 65.2096 4.79162 51.6579 4.79162 35.0002C4.79162 18.3433 18.343 4.7913 35.0002 4.7913Z" fill="white"/>
<path d="M30.2999 49.9918C31.2354 50.9271 32.7524 50.9267 33.6876 49.9918C34.6235 49.0559 34.6235 47.5393 33.6873 46.6034L24.4816 37.398L51.1395 37.3955C52.4625 37.3951 53.5348 36.3229 53.5348 34.9992C53.5345 33.6761 52.4622 32.6042 51.1392 32.6042L24.4803 32.6067L33.6883 23.3994C34.6239 22.4638 34.6239 20.9466 33.6883 20.0113C33.2203 19.5437 32.6074 19.3096 31.9941 19.3096C31.3811 19.3096 30.7681 19.5437 30.3002 20.011L17.003 33.3078C16.5536 33.757 16.3013 34.3661 16.3013 35.0017C16.3016 35.6374 16.5539 36.2462 17.0034 36.6963L30.2999 49.9918Z" fill="white"/>
</svg>
