<svg width="81" height="81" viewBox="0 0 81 81" fill="none" xmlns="http://www.w3.org/2000/svg">
<path d="M40.4998 0.000469482C18.1681 0.00046753 5.49301e-06 18.1693 3.54067e-06 40.5014C1.58837e-06 62.8332 18.1681 81.0019 40.4998 81.0019C62.8316 81.002 81 62.8332 81 40.5014C81 18.1693 62.8316 0.000471434 40.4998 0.000469482ZM40.4998 75.4577C21.2251 75.4577 5.54423 59.7764 5.54386 40.5014C5.54387 21.2263 21.2248 5.54506 40.4998 5.54469C59.7745 5.54506 75.4554 21.2263 75.4554 40.5018C75.4554 59.7761 59.7745 75.4577 40.4998 75.4577Z" fill="black"/>
<path d="M45.9383 23.1545C44.8557 22.0722 43.1004 22.0726 42.0182 23.1545C40.9352 24.2374 40.9352 25.9924 42.0186 27.0753L52.6709 37.7273L21.8239 37.7302C20.293 37.7306 19.0522 38.9714 19.0522 40.5031C19.0526 42.034 20.2933 43.2745 21.8243 43.2745L52.6724 43.2715L42.0175 53.9257C40.9349 55.0083 40.9349 56.7639 42.0175 57.8462C42.559 58.3873 43.2682 58.6582 43.9779 58.6582C44.6872 58.6582 45.3965 58.3873 45.938 57.8465L61.3247 42.4602C61.8447 41.9405 62.1367 41.2357 62.1367 40.5001C62.1364 39.7646 61.8444 39.0601 61.3243 38.5393L45.9383 23.1545Z" fill="black"/>
</svg>
