<svg width="81" height="81" viewBox="0 0 81 81" fill="none" xmlns="http://www.w3.org/2000/svg">
<path d="M40.5002 81.0015C62.8319 81.0015 81 62.8327 81 40.5006C81 18.1688 62.8319 0 40.5002 0C18.1684 0 0 18.1688 0 40.5006C0 62.8327 18.1684 81.0015 40.5002 81.0015ZM40.5002 5.54422C59.7749 5.54422 75.4558 21.2255 75.4561 40.5006C75.4561 59.7756 59.7752 75.4569 40.5002 75.4573C21.2255 75.4569 5.54459 59.7756 5.54459 40.5002C5.54459 21.2259 21.2255 5.54422 40.5002 5.54422Z" fill="black"/>
<path d="M35.0617 57.8475C36.1443 58.9297 37.8996 58.9293 38.9818 57.8475C40.0648 56.7645 40.0648 55.0096 38.9814 53.9266L28.3291 43.2747L59.1761 43.2717C60.707 43.2713 61.9478 42.0305 61.9478 40.4989C61.9474 38.9679 60.7067 37.7275 59.1757 37.7275L28.3276 37.7304L38.9825 27.0763C40.0651 25.9937 40.0651 24.238 38.9825 23.1558C38.441 22.6147 37.7318 22.3438 37.0221 22.3438C36.3128 22.3438 35.6035 22.6147 35.062 23.1554L19.6753 38.5418C19.1553 39.0614 18.8633 39.7663 18.8633 40.5018C18.8637 41.2374 19.1556 41.9418 19.6757 42.4626L35.0617 57.8475Z" fill="black"/>
</svg>
