<svg width="135" height="129" viewBox="0 0 135 129" fill="none" xmlns="http://www.w3.org/2000/svg">
<path d="M7.81516 8.72475C7.81516 6.14245 8.50757 4.15221 9.89237 2.75403C11.0966 1.53647 12.6285 0.927688 14.4883 0.927688C16.977 0.927688 18.7966 1.74385 19.9473 3.37619C20.5828 4.2927 20.924 5.21256 20.9708 6.13576H17.8801C17.6794 5.42664 17.4218 4.89144 17.1074 4.53019C16.5455 3.88796 15.7126 3.56685 14.6087 3.56685C13.4848 3.56685 12.5984 4.02176 11.9495 4.93158C11.3006 5.83472 10.9761 7.11583 10.9761 8.77492C10.9761 10.434 11.3173 11.6783 11.9997 12.5079C12.6887 13.3307 13.5618 13.7422 14.6188 13.7422C15.7025 13.7422 16.5287 13.3876 17.0974 12.6785C17.4118 12.2971 17.6727 11.7252 17.8801 10.9625H20.9407C20.6731 12.5748 19.9874 13.886 18.8836 14.8962C17.7864 15.9063 16.3782 16.4114 14.6589 16.4114C12.5315 16.4114 10.8591 15.7291 9.6415 14.3643C8.42394 12.9929 7.81516 11.113 7.81516 8.72475ZM25.9983 16H23.1383V1.20866H25.9983V16ZM31.7382 3.75751H28.8381V1.11835H31.7382V3.75751ZM28.8381 5.06204H31.7382V16H28.8381V5.06204ZM41.0505 8.98565C40.997 8.57757 40.8599 8.20963 40.6391 7.88182C40.318 7.44029 39.8196 7.21953 39.1439 7.21953C38.1806 7.21953 37.5216 7.69785 37.167 8.65451C36.9797 9.16294 36.8861 9.83862 36.8861 10.6815C36.8861 11.4843 36.9797 12.1299 37.167 12.6183C37.5082 13.5281 38.1505 13.983 39.0937 13.983C39.7627 13.983 40.2377 13.8024 40.5187 13.4411C40.7996 13.0799 40.9702 12.6116 41.0304 12.0362H43.9506C43.8837 12.9059 43.5693 13.7288 43.0073 14.5048C42.1109 15.7558 40.7829 16.3813 39.0235 16.3813C37.264 16.3813 35.9695 15.8595 35.14 14.8159C34.3105 13.7723 33.8957 12.4176 33.8957 10.7518C33.8957 8.87193 34.3539 7.41019 35.2705 6.36656C36.187 5.32294 37.4514 4.80113 39.0636 4.80113C40.435 4.80113 41.5556 5.10887 42.4253 5.72434C43.3017 6.33981 43.8201 7.42691 43.9807 8.98565H41.0505ZM45.9274 1.25884H48.7372V9.22649L52.2996 5.11221H55.8419L52.0186 9.29673L55.9924 16H52.5404L49.9213 11.3238L48.7372 12.5581V16H45.9274V1.25884ZM67.3919 10.4106H71.145L69.2986 4.5904L67.3919 10.4106ZM67.5826 1.20866H71.0747L76.3129 16H72.9613L72.008 12.9594H66.5591L65.5355 16H62.3043L67.5826 1.20866ZM82.6047 13.8927C83.5882 13.8927 84.2872 13.4712 84.702 12.6283C84.9696 12.073 85.1034 11.3706 85.1034 10.521C85.1034 9.852 84.9897 9.25325 84.7622 8.72475C84.3541 7.77479 83.6383 7.2998 82.6148 7.2998C81.8923 7.2998 81.3102 7.57743 80.8687 8.13269C80.4339 8.68796 80.2165 9.53088 80.2165 10.6615C80.2165 11.4174 80.3168 12.0362 80.5175 12.5179C80.8921 13.4344 81.5879 13.8927 82.6047 13.8927ZM81.8822 4.78106C82.7921 4.78106 83.5279 5.00517 84.0899 5.4534C84.4177 5.70761 84.7522 6.12573 85.0934 6.70775V5.08211H87.853V20.335H85.0231V14.6453C84.8091 15.0868 84.4411 15.4815 83.9193 15.8294C83.4042 16.1706 82.6984 16.3412 81.802 16.3412C80.5376 16.3412 79.4605 15.8361 78.5707 14.8259C77.681 13.8158 77.2361 12.4677 77.2361 10.7819C77.2361 8.96224 77.681 7.50719 78.5707 6.41674C79.4672 5.32629 80.571 4.78106 81.8822 4.78106ZM93.3821 5.06204V11.6549C93.3821 12.2771 93.4557 12.7454 93.6029 13.0598C93.8638 13.6151 94.3756 13.8927 95.1382 13.8927C96.115 13.8927 96.784 13.498 97.1452 12.7086C97.3325 12.2804 97.4262 11.7151 97.4262 11.0127V5.06204H100.326V16H97.5466V14.4546C97.5198 14.4881 97.4529 14.5884 97.3459 14.7557C97.2389 14.9229 97.1118 15.0701 96.9646 15.1972C96.5164 15.5986 96.0815 15.8729 95.6601 16.0201C95.2453 16.1672 94.7569 16.2408 94.195 16.2408C92.576 16.2408 91.4856 15.6588 90.9236 14.4948C90.6092 13.8525 90.452 12.9059 90.452 11.6549V5.06204H93.3821ZM103.186 5.06204H106.086V16H103.186V5.06204ZM108.063 0.586504L105.013 3.58692H102.945L104.872 0.586504H108.063Z" fill="#B7D000"/>
<path d="M133.448 113.576L119.339 99.4675L126.259 92.5482C126.858 91.9487 127.105 91.0815 126.91 90.2563C126.715 89.431 126.107 88.7656 125.302 88.4975L83.7865 74.6588C82.9076 74.3658 81.9382 74.5946 81.2831 75.2499C80.6278 75.9052 80.399 76.8743 80.692 77.7533L94.5307 119.269C94.799 120.074 95.4644 120.682 96.2895 120.877C97.1146 121.072 97.9819 120.825 98.5814 120.226L105.501 113.306L119.609 127.415C120.087 127.892 120.713 128.131 121.339 128.131C121.965 128.131 122.591 127.893 123.069 127.415L133.448 117.036C134.403 116.08 134.403 114.531 133.448 113.576ZM121.339 122.225L107.23 108.117C106.275 107.161 104.726 107.161 103.771 108.117L97.9206 113.967L86.8808 80.8478L120 91.8875L114.15 97.7377C113.195 98.6921 113.194 100.242 114.15 101.197L128.258 115.306L121.339 122.225Z" fill="white"/>
<circle cx="57.408" cy="55.1253" r="8.48069" stroke="#B7D000" stroke-width="3.2618"/>
</svg>
