<svg width="111" height="111" viewBox="0 0 111 111" fill="none" xmlns="http://www.w3.org/2000/svg">
<g filter="url(#filter0_d_68_236)">
<circle cx="53.9077" cy="53.9082" r="48.5" fill="white"/>
</g>
<path d="M79.2289 50.4278C79.2273 50.4266 79.2261 50.425 79.2249 50.4237L57.3919 28.5937C56.4612 27.6628 55.224 27.1504 53.9079 27.1504C52.5918 27.1504 51.3545 27.6628 50.4234 28.5937L28.6019 50.4127C28.5945 50.4201 28.5868 50.4278 28.5798 50.4352C26.6688 52.357 26.672 55.4753 28.5892 57.3923C29.4651 58.2685 30.6216 58.7756 31.8584 58.8291C31.9091 58.834 31.9597 58.8364 32.0107 58.8364H32.8805V74.9016C32.8805 78.081 35.4678 80.6676 38.6476 80.6676H47.1893C48.0554 80.6676 48.7574 79.9654 48.7574 79.0997V66.5044C48.7574 65.0537 49.9379 63.8737 51.3888 63.8737H56.4269C57.8778 63.8737 59.0579 65.0537 59.0579 66.5044V79.0997C59.0579 79.9654 59.7599 80.6676 60.626 80.6676H69.1677C72.3479 80.6676 74.9348 78.081 74.9348 74.9016V58.8364H75.7417C77.0574 58.8364 78.2947 58.324 79.2261 57.3927C81.1453 55.4728 81.1461 52.3489 79.2289 50.4278ZM77.0084 55.1756C76.6698 55.5141 76.2198 55.7007 75.7417 55.7007H73.3667C72.5006 55.7007 71.7987 56.4025 71.7987 57.2685V74.9016C71.7987 76.3519 70.6186 77.5319 69.1677 77.5319H62.194V66.5044C62.194 63.3249 59.6071 60.7379 56.4269 60.7379H51.3888C48.2086 60.7379 45.6213 63.3249 45.6213 66.5044V77.5319H38.6476C37.1971 77.5319 36.0166 76.3519 36.0166 74.9016V57.2685C36.0166 56.4025 35.3147 55.7007 34.4486 55.7007H32.1145C32.09 55.699 32.0659 55.6978 32.041 55.6974C31.5738 55.6892 31.1357 55.5038 30.8073 55.1752C30.1091 54.477 30.1091 53.3407 30.8073 52.642C30.8078 52.642 30.8078 52.6416 30.8082 52.6412L30.8094 52.64L52.6416 30.8108C52.9797 30.4724 53.4293 30.2862 53.9079 30.2862C54.386 30.2862 54.8356 30.4724 55.1741 30.8108L77.0014 52.6355C77.0047 52.6388 77.0084 52.642 77.0116 52.6453C77.7062 53.3447 77.705 54.4786 77.0084 55.1756Z" fill="#22332A"/>
<defs>
<filter id="filter0_d_68_236" x="0.000243664" y="0.000731945" width="110.045" height="110.045" filterUnits="userSpaceOnUse" color-interpolation-filters="sRGB">
<feFlood flood-opacity="0" result="BackgroundImageFix"/>
<feColorMatrix in="SourceAlpha" type="matrix" values="0 0 0 0 0 0 0 0 0 0 0 0 0 0 0 0 0 0 127 0" result="hardAlpha"/>
<feOffset dx="1.11494" dy="1.11494"/>
<feGaussianBlur stdDeviation="3.26121"/>
<feComposite in2="hardAlpha" operator="out"/>
<feColorMatrix type="matrix" values="0 0 0 0 0 0 0 0 0 0 0 0 0 0 0 0 0 0 0.12 0"/>
<feBlend mode="normal" in2="BackgroundImageFix" result="effect1_dropShadow_68_236"/>
<feBlend mode="normal" in="SourceGraphic" in2="effect1_dropShadow_68_236" result="shape"/>
</filter>
</defs>
</svg>
