<svg width="69" height="69" viewBox="0 0 69 69" fill="none" xmlns="http://www.w3.org/2000/svg">
<g filter="url(#filter0_d_536_4139)">
<circle cx="33.3447" cy="33.3457" r="30" fill="#22332A"/>
</g>
<path d="M49.0074 31.1933C49.0064 31.1926 49.0056 31.1916 49.0049 31.1908L35.4999 17.6877C34.9243 17.1119 34.159 16.7949 33.3449 16.7949C32.5308 16.7949 31.7655 17.1119 31.1896 17.6877L17.6917 31.184C17.6872 31.1885 17.6824 31.1933 17.6781 31.1979C16.496 32.3867 16.498 34.3155 17.6839 35.5012C18.2257 36.0432 18.941 36.3569 19.7061 36.39C19.7374 36.393 19.7687 36.3945 19.8003 36.3945H20.3383V46.3317C20.3383 48.2984 21.9387 49.8984 23.9055 49.8984H29.1891C29.7248 49.8984 30.159 49.464 30.159 48.9285V41.1376C30.159 40.2402 30.8893 39.5104 31.7867 39.5104H34.9031C35.8005 39.5104 36.5305 40.2402 36.5305 41.1376V48.9285C36.5305 49.464 36.9647 49.8984 37.5004 49.8984H42.784C44.7511 49.8984 46.3512 48.2984 46.3512 46.3317V36.3945H46.8503C47.6642 36.3945 48.4295 36.0776 49.0056 35.5015C50.1928 34.3139 50.1933 32.3816 49.0074 31.1933ZM47.6339 34.1301C47.4245 34.3395 47.1461 34.4549 46.8503 34.4549H45.3813C44.8456 34.4549 44.4114 34.889 44.4114 35.4247V46.3317C44.4114 47.2288 43.6814 47.9587 42.784 47.9587H38.4703V41.1376C38.4703 39.1709 36.8702 37.5707 34.9031 37.5707H31.7867C29.8196 37.5707 28.2192 39.1709 28.2192 41.1376V47.9587H23.9055C23.0084 47.9587 22.2781 47.2288 22.2781 46.3317V35.4247C22.2781 34.889 21.8439 34.4549 21.3082 34.4549H19.8644C19.8493 34.4539 19.8344 34.4531 19.819 34.4529C19.53 34.4478 19.259 34.3331 19.0559 34.1298C18.624 33.698 18.624 32.9951 19.0559 32.563C19.0562 32.563 19.0562 32.5627 19.0564 32.5624L19.0572 32.5617L32.5616 19.0591C32.7708 18.8497 33.0489 18.7346 33.3449 18.7346C33.6407 18.7346 33.9188 18.8497 34.1281 19.0591L47.6296 32.5589C47.6316 32.5609 47.6339 32.563 47.6359 32.565C48.0655 32.9976 48.0648 33.699 47.6339 34.1301Z" fill="white"/>
<defs>
<filter id="filter0_d_536_4139" x="-0.000101209" y="0.000875354" width="68.069" height="68.069" filterUnits="userSpaceOnUse" color-interpolation-filters="sRGB">
<feFlood flood-opacity="0" result="BackgroundImageFix"/>
<feColorMatrix in="SourceAlpha" type="matrix" values="0 0 0 0 0 0 0 0 0 0 0 0 0 0 0 0 0 0 127 0" result="hardAlpha"/>
<feOffset dx="0.689655" dy="0.689655"/>
<feGaussianBlur stdDeviation="2.01724"/>
<feComposite in2="hardAlpha" operator="out"/>
<feColorMatrix type="matrix" values="0 0 0 0 0 0 0 0 0 0 0 0 0 0 0 0 0 0 0.12 0"/>
<feBlend mode="normal" in2="BackgroundImageFix" result="effect1_dropShadow_536_4139"/>
<feBlend mode="normal" in="SourceGraphic" in2="effect1_dropShadow_536_4139" result="shape"/>
</filter>
</defs>
</svg>
