<svg width="62" height="62" viewBox="0 0 62 62" fill="none" xmlns="http://www.w3.org/2000/svg">
<path d="M61.1533 45.1501L44.8378 28.8346L52.8396 20.833C53.5329 20.1397 53.8179 19.1369 53.5925 18.1826C53.3671 17.2282 52.664 16.4587 51.7338 16.1487L3.72381 0.145284C2.70743 -0.193633 1.58639 0.0709737 0.828774 0.828774C0.0709737 1.58657 -0.193633 2.70725 0.145284 3.72381L16.1487 51.734C16.4589 52.6642 17.2284 53.3675 18.1826 53.5927C19.1367 53.8184 20.1397 53.5333 20.833 52.8398L28.8348 44.8382L45.1503 61.1535C45.7027 61.7059 46.4268 61.9822 47.1506 61.9822C47.8745 61.9822 48.5987 61.7061 49.1509 61.1535L61.1535 49.1509C62.2583 48.0461 62.2583 46.2549 61.1533 45.1501ZM47.1504 55.1522L30.8349 38.8369C29.7302 37.732 27.9387 37.732 26.8341 38.8369L20.0688 45.6022L7.30214 7.30233L45.602 20.069L38.8367 26.8343C37.7328 27.938 37.7318 29.7304 38.8367 30.8351L55.1522 47.1506L47.1504 55.1522Z" fill="white"/>
</svg>
